<?xml version="1.0" standalone="no"?><!DOCTYPE svg PUBLIC "-//W3C//DTD SVG 1.1//EN" "http://www.w3.org/Graphics/SVG/1.1/DTD/svg11.dtd"><svg class="icon" width="200px" height="200.00px" viewBox="0 0 1024 1024" version="1.1" xmlns="http://www.w3.org/2000/svg"><path d="M511.4 778.7c-136.5 0-269.2-80.6-394.6-239.8l-13.1-16.7 11.4-17.9c1.6-2.6 40.5-63.4 107.1-125.5 39.4-36.8 80.5-66.4 122.1-88.1 53.1-27.7 107.1-42.4 160.6-43.9 140.4-3.8 274.3 82.4 398 256.2l11.8 16.6-11.1 17.1c-1.5 2.4-38.3 58.5-102.3 116.3-37.8 34.2-77.5 61.9-117.8 82.4-51.3 26.1-103.9 40.5-156.2 42.9-5.3 0.3-10.6 0.4-15.9 0.4zM177.8 519.1C291 656.6 407.4 723.6 524.3 718.4c99.5-4.4 183.1-61.6 235.6-108.8 38.6-34.7 66.8-69.3 81.6-89-107.6-144.9-220.2-216.8-334.8-213.8-101 2.6-187.6 63.9-242.5 114.9-40.9 37.9-70.8 76-86.4 97.4z"  /><path d="M509.5 641.6c-70.6 0-128.1-57.5-128.1-128.1s57.5-128.1 128.1-128.1 128.1 57.5 128.1 128.1-57.5 128.1-128.1 128.1z m0-196.2c-37.6 0-68.1 30.5-68.1 68.1 0 37.6 30.5 68.1 68.1 68.1s68.1-30.5 68.1-68.1c0-37.6-30.5-68.1-68.1-68.1z"  /></svg>