<?xml version="1.0" standalone="no"?><!DOCTYPE svg PUBLIC "-//W3C//DTD SVG 1.1//EN" "http://www.w3.org/Graphics/SVG/1.1/DTD/svg11.dtd"><svg class="icon" width="200px" height="200.00px" viewBox="0 0 1024 1024" version="1.1" xmlns="http://www.w3.org/2000/svg"><path d="M947.3 513.4c-9.9-6.5-22.3-7.5-33.1-2.8l-92.4 40.2v-454c0-19.3-15.7-35-35-35H236.2c-19.3 0-35 15.7-35 35v453.4l-91.4-39.7c-10.8-4.7-23.3-3.6-33.1 2.8a35 35 0 0 0-15.8 29.3v384.6c0 19.3 15.7 35 35 35h832.3c19.3 0 35-15.7 35-35V542.6c0-11.8-6-22.8-15.9-29.2zM271.2 131.8h480.6v449.3L512.2 685.3l-241-104.6V131.8z m622 760.4H130.8V596l367.4 159.5c8.9 3.9 19 3.9 27.9 0l367-159.5v296.2z"  /><path d="M511.5 242.9c25.1 0 45.5 20.4 45.5 45.5s-20.4 45.5-45.5 45.5c-19.2 0-34.8 15.4-35 34.6l-0.7 67.6c-0.2 19.3 15.3 35.2 34.6 35.4h0.4c19.2 0 34.8-15.4 35-34.6l0.4-38.2c46.8-15 80.8-58.8 80.8-110.3 0-63.7-51.8-115.5-115.5-115.5S396 224.7 396 288.4c0 19.3 15.7 35 35 35s35-15.7 35-35c0-25.1 20.4-45.5 45.5-45.5z"  /><path d="M506.6 557.7m-35 0a35 35 0 1 0 70 0 35 35 0 1 0-70 0Z"  /></svg>