<?xml version="1.0" standalone="no"?><!DOCTYPE svg PUBLIC "-//W3C//DTD SVG 1.1//EN" "http://www.w3.org/Graphics/SVG/1.1/DTD/svg11.dtd"><svg class="icon" width="200px" height="200.00px" viewBox="0 0 1024 1024" version="1.1" xmlns="http://www.w3.org/2000/svg"><path d="M192 704c12.8 0 32 6.4 38.4 12.8L512 953.6V89.6L236.8 364.8c-12.8 12.8-25.6 19.2-44.8 19.2H128c-38.4 0-64 25.6-64 64v192c0 38.4 25.6 64 64 64h64z m-64 64c-70.4 0-128-57.6-128-128V448c0-70.4 57.6-128 128-128h64L467.2 44.8c25.6-25.6 64-25.6 89.6 0 12.8 12.8 19.2 25.6 19.2 44.8v864c0 38.4-25.6 64-64 64-12.8 0-32-6.4-38.4-12.8L192 768H128z m595.2-6.4c-19.2 6.4-38.4 6.4-44.8-12.8-6.4-12.8-6.4-32 12.8-44.8 70.4-38.4 108.8-115.2 108.8-192 0-83.2-44.8-153.6-115.2-192-12.8-6.4-19.2-25.6-12.8-44.8 12.8-19.2 32-19.2 44.8-12.8 89.6 51.2 147.2 147.2 147.2 249.6s-57.6 198.4-140.8 249.6z m128 89.6c-12.8 12.8-32 6.4-44.8-6.4s-6.4-32 6.4-44.8c89.6-64 147.2-172.8 147.2-281.6 0-115.2-57.6-217.6-147.2-288-12.8-12.8-19.2-32-6.4-44.8s32-19.2 44.8-6.4C960 256 1024 377.6 1024 512s-64 256-172.8 339.2z" /></svg>