<?xml version="1.0" standalone="no"?><!DOCTYPE svg PUBLIC "-//W3C//DTD SVG 1.1//EN" "http://www.w3.org/Graphics/SVG/1.1/DTD/svg11.dtd"><svg class="icon" width="200px" height="200.00px" viewBox="0 0 1024 1024" version="1.1" xmlns="http://www.w3.org/2000/svg"><path d="M896 170.666667 128 170.666667c-46.933333 0-85.333333 38.4-85.333333 85.333333l0 512c0 46.933333 38.4 85.333333 85.333333 85.333333l768 0c46.933333 0 85.333333-38.4 85.333333-85.333333L981.333333 256C981.333333 209.066667 942.933333 170.666667 896 170.666667zM128 213.333333l768 0c4.266667 0 10.666667 0 14.933333 2.133333L541.866667 584.533333C533.333333 593.066667 522.666667 597.333333 512 597.333333c-10.666667 0-21.333333-4.266667-29.866667-12.8L113.066667 215.466667C117.333333 213.333333 123.733333 213.333333 128 213.333333zM85.333333 768 85.333333 256c0-2.133333 0-4.266667 0-6.4L349.866667 512 85.333333 774.4C85.333333 772.266667 85.333333 770.133333 85.333333 768zM896 810.666667 128 810.666667c-4.266667 0-10.666667 0-14.933333-2.133333l266.666667-266.666667 72.533333 72.533333C469.333333 631.466667 490.666667 640 512 640c21.333333 0 42.666667-8.533333 59.733333-23.466667l72.533333-72.533333 266.666667 266.666667C906.666667 810.666667 900.266667 810.666667 896 810.666667zM938.666667 768c0 2.133333 0 4.266667 0 6.4L674.133333 512 938.666667 249.6c0 2.133333 0 4.266667 0 6.4L938.666667 768z" /></svg>