<?xml version="1.0" standalone="no"?><!DOCTYPE svg PUBLIC "-//W3C//DTD SVG 1.1//EN" "http://www.w3.org/Graphics/SVG/1.1/DTD/svg11.dtd"><svg class="icon" width="200px" height="200.00px" viewBox="0 0 1024 1024" version="1.1" xmlns="http://www.w3.org/2000/svg"><path d="M872.6 581.1L566.4 470.7c-11.9-4.3-25 1.9-29.3 13.7-1.8 5-1.8 10.5 0 15.5l110.4 306.2c6.6 18.3 31.7 20.5 41.3 3.6l41.6-72.6c6.3-10.9 20.3-14.7 31.2-8.4 1.7 1 3.3 2.2 4.7 3.6L900 865.9c8.9 8.9 23.4 8.9 32.3 0 8.9-8.9 8.9-23.4 0-32.3L798.8 700.1c-8.9-8.9-8.9-23.4 0-32.3 1.4-1.4 3-2.7 4.8-3.7l72.6-41.6c16.9-9.7 14.7-34.7-3.6-41.4z"  /><path d="M908.8 0H115.2C72.7 0 38.1 34.6 38.1 77.1v869.8c0 42.5 34.6 77.1 77.1 77.1h444.9c14.5 0 26.3-11.8 26.3-26.3 0-16.2-13.2-29.5-29.5-29.5H112.2c-10 0-18.2-8.2-18.2-18.2V74.1c0-10 8.2-18.2 18.2-18.2h799.7c10 0 18.2 8.2 18.2 18.2v363.6c0 16 13 29 29 29 14.8 0 26.8-12 26.8-26.8V77.1c0-42.5-34.6-77.1-77.1-77.1z"  /></svg>