<?xml version="1.0" standalone="no"?><!DOCTYPE svg PUBLIC "-//W3C//DTD SVG 1.1//EN" "http://www.w3.org/Graphics/SVG/1.1/DTD/svg11.dtd"><svg class="icon" width="200px" height="188.24px" viewBox="0 0 1088 1024" version="1.1" xmlns="http://www.w3.org/2000/svg"><path d="M760.193658 603.374432a28.448958 28.448958 0 0 0-28.448958 28.448958v225.165787h-590.260752v-522.666909h590.282805v31.977511a28.448958 28.448958 0 0 0 56.897917 0v-252.512072a28.437932 28.437932 0 0 0-28.448958-28.448959H562.23081a135.121525 135.121525 0 0 0-251.232972 0H113.034989a28.437932 28.437932 0 0 0-28.448958 28.448959v771.639402a28.448958 28.448958 0 0 0 28.448958 28.448958h647.158669a28.448958 28.448958 0 0 0 28.448959-28.448958v-253.614745a28.448958 28.448958 0 0 0-28.448959-28.448959z m-431.145066-461.06058a28.272531 28.272531 0 0 0 18.811598-7.101213h10.530525a78.234635 78.234635 0 1 1 156.458244 0h10.486419a28.294584 28.294584 0 0 0 18.811598 7.101213h187.619777v149.290871H141.483948V142.258719z m0 0"  /><path d="M575.297482 455.175207a21.347745 21.347745 0 0 0-21.336718-21.336719h-284.489584a21.336719 21.336719 0 1 0 0 42.673438h284.489584a21.347745 21.347745 0 0 0 21.336718-21.336719zM440.175957 576.072253H269.493233a21.336719 21.336719 0 1 0 0 42.673438h170.682724a21.336719 21.336719 0 0 0 0-42.673438z m0 142.244792H269.493233a21.336719 21.336719 0 0 0 0 42.673438h170.682724a21.336719 21.336719 0 0 0 0-42.673438z m81.774215 21.336719l85.346875-42.673438 291.568743-284.489583c0-53.336284-46.224044-39.111804-46.224044-39.111805L553.960764 654.295862z m0 0"  /></svg>